<?xml version="1.0" standalone="no"?><svg xmlns="http://www.w3.org/2000/svg" viewBox="0 0 1440 320"><path fill="#ff7e00" fill-opacity="1" d="M0,64L24,85.3C48,107,96,149,144,192C192,235,240,277,288,261.3C336,245,384,171,432,165.3C480,160,528,224,576,261.3C624,299,672,309,720,314.7C768,320,816,320,864,288C912,256,960,192,1008,160C1056,128,1104,128,1152,133.3C1200,139,1248,149,1296,149.3C1344,149,1392,139,1416,133.3L1440,128L1440,0L1416,0C1392,0,1344,0,1296,0C1248,0,1200,0,1152,0C1104,0,1056,0,1008,0C960,0,912,0,864,0C816,0,768,0,720,0C672,0,624,0,576,0C528,0,480,0,432,0C384,0,336,0,288,0C240,0,192,0,144,0C96,0,48,0,24,0L0,0Z"></path></svg>